<svg width="137" height="137" viewBox="0 0 137 137" fill="none" xmlns="http://www.w3.org/2000/svg">
<path d="M22.8239 17.0723C19.6712 17.0723 17.1156 19.6296 17.1156 22.7806V96.9889C17.1156 109.599 27.3387 119.822 39.9489 119.822H114.157C117.308 119.822 119.866 117.265 119.866 114.114C119.866 110.963 117.308 108.406 114.157 108.406H39.9489C33.6435 108.406 28.5323 103.297 28.5323 96.9889V22.7806C28.5323 19.6296 25.9766 17.0723 22.8239 17.0723ZM79.9072 28.4889V39.9056H100.24L84.3654 55.7805C83.8517 56.3 82.2477 57.0306 81.5113 57.0306H72.5949C68.8331 57.0306 64.1922 58.8288 61.5321 61.4888L41.5541 81.468C39.325 83.7 39.325 87.4446 41.5541 89.6765C42.6689 90.7896 44.1965 91.2806 45.6573 91.2806C47.118 91.2806 48.6456 90.7896 49.7604 89.6765L69.7407 69.6974C70.2545 69.1779 71.8585 68.4473 72.5949 68.4473H81.5113C85.2731 68.4473 89.914 66.6491 92.574 63.989L108.449 48.1141V68.4473H119.866V34.1973C119.866 31.0463 117.308 28.4889 114.157 28.4889H79.9072Z" fill="white"/>
</svg>
