<svg width="79" height="79" viewBox="0 0 79 79" fill="none" xmlns="http://www.w3.org/2000/svg">
<path d="M26.9544 6.63683C35.5809 7.13058 38.4397 13.6152 39.4828 16.5546C41.0487 20.9687 39.4637 29.7015 39.4637 29.7015L57.9823 29.708C61.2717 29.708 65.7641 32.6705 65.8254 36.976C65.8741 40.4257 64.2207 42.6278 62.6209 44.3954C65.3675 46.8411 65.8254 49.3856 65.8254 52.0321C65.8254 54.7214 64.378 57.4962 62.4159 59.3396C62.5149 65.3172 59.4468 69.2409 54.0764 71.0316C50.5208 72.2199 47.2755 72.4733 39.4792 72.4733C24.5048 72.4733 13.3826 61.308 13.1633 46.14C13.0636 39.2242 14.9428 33.0096 18.6838 26.1497C23.7404 16.8804 23.0492 12.1471 23.0775 9.86922C23.0982 8.1806 24.6825 6.50846 26.9544 6.63683Z" fill="#062856"/>
</svg>
