<svg width="77" height="77" viewBox="0 0 77 77" fill="none" xmlns="http://www.w3.org/2000/svg">
<path d="M24.0589 9.59521C14.3133 9.59521 6.41309 17.4941 6.41309 27.2411C6.41309 37.4564 12.2314 47.0943 21.8532 55.9172C25.1372 58.9266 28.6731 61.5671 32.1798 63.938C33.409 64.7658 34.5585 65.5166 35.589 66.1422C36.2172 66.524 36.6314 66.7999 36.8922 66.9443C37.8612 67.4833 39.1317 67.4833 40.1006 66.9443C40.3614 66.7999 40.7756 66.524 41.4038 66.1422C42.4343 65.5166 43.5839 64.7658 44.813 63.938C48.3197 61.5671 51.8556 58.9266 55.1396 55.9172C64.7614 47.0943 70.5797 37.4564 70.5797 27.2411C70.5797 17.4941 62.6795 9.59521 52.9339 9.59521C47.3989 9.59521 41.9948 12.6111 38.5965 17.0129C35.2829 12.5341 29.8978 9.59521 24.0589 9.59521Z" fill="#062856"/>
</svg>
