<svg width="137" height="137" viewBox="0 0 137 137" fill="none" xmlns="http://www.w3.org/2000/svg">
<path d="M45.6573 17.1025C38.4192 17.1025 31.9802 21.6946 29.4229 28.717L22.824 28.5397C19.6731 28.5397 17.1157 31.1016 17.1157 34.2583C17.1157 37.415 19.6731 39.9769 22.824 39.9769H28.5324V51.4141H22.824C19.6731 51.4141 17.1157 53.976 17.1157 57.1326C17.1157 60.2893 19.6731 62.8512 22.824 62.8512H28.5324V74.2884H22.824C19.6731 74.2884 17.1157 76.8503 17.1157 80.007C17.1157 83.1636 19.6731 85.7256 22.824 85.7256H28.5324V97.1627H22.824C19.6731 97.1627 17.1157 99.7247 17.1157 102.881C17.1157 106.038 19.6731 108.6 22.824 108.6L29.6055 108.777C31.552 115.131 38.4192 120.037 45.6573 120.037H102.741C112.199 120.037 119.866 112.357 119.866 102.881C119.866 102.881 119.888 89.2368 119.866 85.7256C119.888 83.604 118.364 80.007 114.157 80.007C109.95 80.007 108.455 83.6783 108.449 85.7256C108.403 90.7694 108.449 102.881 108.449 102.881C108.449 106.038 105.892 108.6 102.741 108.6H45.6573C42.5063 108.6 39.949 106.038 39.949 102.881V80.007V57.1326V34.2583C39.949 31.1016 42.5063 28.5397 45.6573 28.5397H85.6156V62.8512C85.6156 67.9465 91.8319 70.5656 95.4282 66.9629C96.3415 66.0479 99.7208 62.6567 102.741 59.6373L110.053 66.9629C113.649 70.5656 119.866 67.9465 119.866 62.8512V45.5182V34.2583C119.866 29.5233 117.97 25.2115 114.871 22.1063C111.771 19.0011 107.467 17.1025 102.741 17.1025H91.3239H45.6573Z" fill="white"/>
</svg>
