<svg width="78" height="78" viewBox="0 0 78 78" fill="none" xmlns="http://www.w3.org/2000/svg">
<path d="M50.3713 9.52148C42.2941 9.52148 35.7463 16.0702 35.7463 24.1465C35.7463 32.2227 42.2941 38.7715 50.3713 38.7715C58.4486 38.7715 64.9963 32.2227 64.9963 24.1465C64.9963 16.0702 58.4486 9.52148 50.3713 9.52148ZM25.9963 12.7715C18.8168 12.7715 12.9963 18.5922 12.9963 25.7715C12.9963 32.9507 18.8168 38.7715 25.9963 38.7715C28.6919 38.7715 31.1525 38.0306 33.3179 36.5161C27.7643 28.2611 28.5515 20.357 31.5782 13.9902C29.8495 13.1712 27.9509 12.7715 25.9963 12.7715ZM16.4495 43.1395C10.4886 45.5997 6.49634 51.6285 6.49634 58.2715V64.7715C6.49634 66.5655 7.95136 68.0215 9.74634 68.0215L23.2429 68.028C22.4824 65.558 22.706 61.554 22.7561 58.3137C22.8617 51.4335 25.7071 46.5259 26.8215 45.2324C24.7734 45.2162 22.3154 44.719 20.512 43.952C20.0765 43.7667 19.8236 43.6205 18.9887 43.2402C18.17 42.8665 17.2808 42.795 16.4495 43.1395ZM39.1995 43.1395C33.2386 45.5997 29.2463 51.6285 29.2463 58.2715V64.7715C29.2463 66.5655 30.7014 68.0215 32.4963 68.0215H68.2463C70.0413 68.0215 71.4963 66.5655 71.4963 64.7715V58.2715C71.4963 51.7845 67.4819 45.902 61.5432 43.341C60.7073 42.9803 59.7333 42.9705 58.9026 43.341C56.027 44.6313 53.2255 45.2715 50.3713 45.2715C47.5269 45.2715 44.7157 44.5955 41.7387 43.2402C40.92 42.8665 40.0308 42.795 39.1995 43.1395Z" fill="#062856"/>
</svg>
