<svg width="137" height="137" viewBox="0 0 137 137" fill="none" xmlns="http://www.w3.org/2000/svg">
<path d="M88.4729 16.7236C74.286 16.7236 62.7854 28.2259 62.7854 42.4111C62.7854 56.5963 74.286 68.0986 88.4729 68.0986C102.66 68.0986 114.16 56.5963 114.16 42.4111C114.16 28.2259 102.66 16.7236 88.4729 16.7236ZM45.6604 22.432C33.0501 22.432 22.8271 32.6556 22.8271 45.2653C22.8271 57.875 33.0501 68.0986 45.6604 68.0986C50.3949 68.0986 54.8793 66.6545 58.6822 63.9944C61.2664 62.1905 61.9154 58.5543 60.1093 55.9684C58.3032 53.3825 54.8445 52.9145 52.2604 54.7183C50.3601 56.0484 48.0362 56.682 45.6604 56.682C39.355 56.682 34.2437 51.573 34.2437 45.2653C34.2437 38.9576 39.355 33.8486 45.6604 33.8486C47.5224 33.8486 49.2258 34.2596 50.8333 35.0987C53.6304 36.5543 57.2278 35.5726 58.6822 32.7755C60.1373 29.9842 58.9819 26.3821 56.1854 24.9321C52.9596 23.2539 49.3674 22.432 45.6604 22.432ZM88.4729 28.1403C96.3544 28.1403 102.744 34.5279 102.744 42.4111C102.744 50.2943 96.3544 56.682 88.4729 56.682C80.5914 56.682 74.202 50.2943 74.202 42.4111C74.202 34.5279 80.5914 28.1403 88.4729 28.1403ZM28.8922 75.7706C18.4225 80.0918 11.4104 90.6808 11.4104 102.349V113.765C11.4104 116.916 13.966 119.474 17.1187 119.474H39.9521C43.1048 119.474 45.6604 116.916 45.6604 113.765C45.6604 110.614 43.1048 108.057 39.9521 108.057H22.8271V102.349C22.8271 95.9325 26.6328 90.0415 31.0071 87.45C35.1211 89.1853 39.4731 90.4982 43.3434 90.8236C46.4852 91.0919 49.3183 88.7229 49.5849 85.5776C49.8514 82.438 47.5813 79.778 44.44 79.5097C41.934 79.2985 39.1951 78.5448 36.0276 77.1977C35.2627 76.8723 34.8186 76.6155 33.3521 75.9476C31.9142 75.2911 30.3524 75.1655 28.8922 75.7706ZM68.8505 75.7706C58.3808 80.0918 51.3687 90.6808 51.3687 102.349V113.765C51.3687 116.916 53.9243 119.474 57.0771 119.474H119.869C123.021 119.474 125.577 116.916 125.577 113.765V102.349C125.577 90.9548 118.526 80.6228 108.095 76.1246C106.627 75.491 104.916 75.4738 103.457 76.1246C98.4065 78.3908 93.4859 79.5153 88.4729 79.5153C83.4769 79.5153 78.5392 78.328 73.3104 75.9476C71.8725 75.2911 70.3107 75.1655 68.8505 75.7706ZM71.0453 87.45C76.4386 89.4936 82.9409 90.932 88.4729 90.932C93.9614 90.932 100.195 89.5904 105.479 87.6381C110.631 90.5722 114.16 96.0638 114.16 102.349V108.057H62.7854V102.349C62.7854 95.6984 66.5295 90.0929 71.0453 87.45Z" fill="white"/>
</svg>
