<svg width="78" height="78" viewBox="0 0 78 78" fill="none" xmlns="http://www.w3.org/2000/svg">
<path d="M39.0459 6.34766C21.0968 6.34766 6.5459 20.8979 6.5459 38.8477C6.5459 56.7974 21.0968 71.3477 39.0459 71.3477C56.995 71.3477 71.5459 56.7974 71.5459 38.8477C71.5459 20.8979 56.995 6.34766 39.0459 6.34766ZM39.0459 12.8477C53.4054 12.8477 65.0459 24.4892 65.0459 38.8477C65.0459 53.2062 53.4054 64.8477 39.0459 64.8477C24.6864 64.8477 13.0459 53.2062 13.0459 38.8477C13.0459 24.4892 24.6864 12.8477 39.0459 12.8477ZM31.3271 26.3547C30.1289 26.9982 29.2959 28.2039 29.2959 29.9102V47.7852C29.2959 51.1944 32.6886 52.8291 35.4911 51.2366L48.6945 43.7227C53.1743 40.9439 53.0124 36.6539 48.6945 33.9727L35.4911 26.4587C34.09 25.6624 32.5254 25.7112 31.3271 26.3547Z" fill="#062856"/>
</svg>
