<svg width="70" height="71" viewBox="0 0 70 71" fill="none" xmlns="http://www.w3.org/2000/svg">
<path d="M34.9969 6.64941C18.8882 6.64941 5.88567 19.7073 5.83025 35.8161C5.77484 51.9015 18.9027 65.041 34.9969 65.0731C51.0911 65.1052 64.1927 51.7877 64.1635 35.8161C64.1344 19.7073 51.1056 6.64941 34.9969 6.64941ZM34.9969 12.4827C47.8827 12.4827 58.3302 22.9302 58.3302 35.8161C58.3302 42.3785 55.5973 48.2935 51.2369 52.5344C49.0873 47.8881 44.4761 44.566 39.1882 44.566C38.1411 44.566 31.8528 44.566 30.8028 44.566C25.5236 44.566 20.9211 47.8473 18.7715 52.4964C14.414 48.2556 11.6636 42.3785 11.6636 35.8161C11.6636 22.9302 22.1111 12.4827 34.9969 12.4827ZM34.9969 18.3161C28.554 18.3161 23.3302 23.5398 23.3302 29.9827C23.3302 36.4256 28.554 41.6494 34.9969 41.6494C41.4398 41.6494 46.6636 36.4256 46.6636 29.9827C46.6636 23.5398 41.4398 18.3161 34.9969 18.3161ZM34.9969 24.1494C38.2198 24.1494 40.8302 26.7598 40.8302 29.9827C40.8302 33.2056 38.2198 35.8161 34.9969 35.8161C31.774 35.8161 29.1636 33.2056 29.1636 29.9827C29.1636 26.7598 31.774 24.1494 34.9969 24.1494ZM30.8028 50.3994C31.8528 50.3994 38.1411 50.3994 39.1882 50.3994C42.4432 50.3994 45.3889 52.7735 46.4214 56.1189C42.2565 58.5777 37.6044 59.1494 34.9969 59.1494C32.3194 59.1494 27.8773 58.5485 23.6073 56.1948C24.6311 52.8202 27.5769 50.3994 30.8028 50.3994Z" fill="white"/>
</svg>
